<mxfile host="Electron" modified="2023-12-14T01:20:42.321Z" agent="Mozilla/5.0 (Windows NT 10.0; Win64; x64) AppleWebKit/537.36 (KHTML, like Gecko) draw.io/22.1.2 Chrome/114.0.5735.289 Electron/25.9.4 Safari/537.36" etag="_C_quVbJO8aAJMMhxE-_" version="22.1.2" type="device">
  <diagram name="Page-1" id="gR8wLcagd-KG0n7rOOvR">
    <mxGraphModel dx="-2619" dy="-1192" grid="0" gridSize="10" guides="1" tooltips="1" connect="1" arrows="1" fold="1" page="0" pageScale="1" pageWidth="1100" pageHeight="850" math="0" shadow="0">
      <root>
        <mxCell id="0" />
        <mxCell id="1" parent="0" />
        <mxCell id="iopelBDr--RElrH_dYT2-1" value="" style="shape=umlLifeline;perimeter=lifelinePerimeter;whiteSpace=wrap;html=1;container=1;dropTarget=0;collapsible=0;recursiveResize=0;outlineConnect=0;portConstraint=eastwest;newEdgeStyle={&quot;curved&quot;:0,&quot;rounded&quot;:0};participant=umlActor;opacity=30;" vertex="1" parent="1">
          <mxGeometry x="4298" y="2385" width="20" height="1304" as="geometry" />
        </mxCell>
        <mxCell id="iopelBDr--RElrH_dYT2-2" value="" style="html=1;points=[[0,0,0,0,5],[0,1,0,0,-5],[1,0,0,0,5],[1,1,0,0,-5]];perimeter=orthogonalPerimeter;outlineConnect=0;targetShapes=umlLifeline;portConstraint=eastwest;newEdgeStyle={&quot;curved&quot;:0,&quot;rounded&quot;:0};" vertex="1" parent="iopelBDr--RElrH_dYT2-1">
          <mxGeometry x="5" y="74" width="10" height="48" as="geometry" />
        </mxCell>
        <mxCell id="iopelBDr--RElrH_dYT2-3" value="TestWindow" style="shape=umlLifeline;perimeter=lifelinePerimeter;whiteSpace=wrap;html=1;container=1;dropTarget=0;collapsible=0;recursiveResize=0;outlineConnect=0;portConstraint=eastwest;newEdgeStyle={&quot;curved&quot;:0,&quot;rounded&quot;:0};opacity=30;" vertex="1" parent="1">
          <mxGeometry x="4816" y="2389" width="100" height="1301" as="geometry" />
        </mxCell>
        <mxCell id="iopelBDr--RElrH_dYT2-4" value="" style="html=1;points=[[0,0,0,0,5],[0,1,0,0,-5],[1,0,0,0,5],[1,1,0,0,-5]];perimeter=orthogonalPerimeter;outlineConnect=0;targetShapes=umlLifeline;portConstraint=eastwest;newEdgeStyle={&quot;curved&quot;:0,&quot;rounded&quot;:0};" vertex="1" parent="iopelBDr--RElrH_dYT2-3">
          <mxGeometry x="45" y="88" width="10" height="1017" as="geometry" />
        </mxCell>
        <mxCell id="iopelBDr--RElrH_dYT2-5" value="" style="html=1;points=[[0,0,0,0,5],[0,1,0,0,-5],[1,0,0,0,5],[1,1,0,0,-5]];perimeter=orthogonalPerimeter;outlineConnect=0;targetShapes=umlLifeline;portConstraint=eastwest;newEdgeStyle={&quot;curved&quot;:0,&quot;rounded&quot;:0};" vertex="1" parent="iopelBDr--RElrH_dYT2-3">
          <mxGeometry x="50" y="138" width="10" height="938" as="geometry" />
        </mxCell>
        <mxCell id="iopelBDr--RElrH_dYT2-6" value="executeCompression()" style="html=1;align=left;spacingLeft=2;endArrow=block;rounded=0;edgeStyle=orthogonalEdgeStyle;curved=0;rounded=0;" edge="1" parent="iopelBDr--RElrH_dYT2-3" target="iopelBDr--RElrH_dYT2-5">
          <mxGeometry relative="1" as="geometry">
            <mxPoint x="55" y="118" as="sourcePoint" />
            <Array as="points">
              <mxPoint x="85" y="148" />
            </Array>
          </mxGeometry>
        </mxCell>
        <mxCell id="iopelBDr--RElrH_dYT2-7" value="Test-UI" style="shape=umlLifeline;perimeter=lifelinePerimeter;whiteSpace=wrap;html=1;container=1;dropTarget=0;collapsible=0;recursiveResize=0;outlineConnect=0;portConstraint=eastwest;newEdgeStyle={&quot;curved&quot;:0,&quot;rounded&quot;:0};participant=umlBoundary;size=56;opacity=30;" vertex="1" parent="1">
          <mxGeometry x="4434" y="2385" width="80" height="1304" as="geometry" />
        </mxCell>
        <mxCell id="iopelBDr--RElrH_dYT2-8" value="" style="html=1;points=[[0,0,0,0,5],[0,1,0,0,-5],[1,0,0,0,5],[1,1,0,0,-5]];perimeter=orthogonalPerimeter;outlineConnect=0;targetShapes=umlLifeline;portConstraint=eastwest;newEdgeStyle={&quot;curved&quot;:0,&quot;rounded&quot;:0};" vertex="1" parent="iopelBDr--RElrH_dYT2-7">
          <mxGeometry x="35" y="82" width="10" height="56" as="geometry" />
        </mxCell>
        <mxCell id="iopelBDr--RElrH_dYT2-9" value="" style="html=1;points=[[0,0,0,0,5],[0,1,0,0,-5],[1,0,0,0,5],[1,1,0,0,-5]];perimeter=orthogonalPerimeter;outlineConnect=0;targetShapes=umlLifeline;portConstraint=eastwest;newEdgeStyle={&quot;curved&quot;:0,&quot;rounded&quot;:0};" vertex="1" parent="iopelBDr--RElrH_dYT2-7">
          <mxGeometry x="35" y="909" width="10" height="80" as="geometry" />
        </mxCell>
        <mxCell id="iopelBDr--RElrH_dYT2-10" value="Compression Button Pressed" style="html=1;verticalAlign=bottom;endArrow=block;curved=0;rounded=0;" edge="1" parent="1">
          <mxGeometry width="80" relative="1" as="geometry">
            <mxPoint x="4313" y="2475" as="sourcePoint" />
            <mxPoint x="4468" y="2476" as="targetPoint" />
          </mxGeometry>
        </mxCell>
        <mxCell id="iopelBDr--RElrH_dYT2-11" value="released()" style="html=1;verticalAlign=bottom;endArrow=block;curved=0;rounded=0;fillColor=#a20025;strokeColor=#6F0000;strokeWidth=3;" edge="1" parent="1" source="iopelBDr--RElrH_dYT2-8">
          <mxGeometry width="80" relative="1" as="geometry">
            <mxPoint x="4683" y="2496" as="sourcePoint" />
            <mxPoint x="4856" y="2499" as="targetPoint" />
          </mxGeometry>
        </mxCell>
        <mxCell id="iopelBDr--RElrH_dYT2-12" value="TestController" style="shape=umlLifeline;perimeter=lifelinePerimeter;whiteSpace=wrap;html=1;container=1;dropTarget=0;collapsible=0;recursiveResize=0;outlineConnect=0;portConstraint=eastwest;newEdgeStyle={&quot;curved&quot;:0,&quot;rounded&quot;:0};opacity=30;" vertex="1" parent="1">
          <mxGeometry x="5130" y="2389" width="100" height="1301" as="geometry" />
        </mxCell>
        <mxCell id="iopelBDr--RElrH_dYT2-13" value="" style="html=1;points=[[0,0,0,0,5],[0,1,0,0,-5],[1,0,0,0,5],[1,1,0,0,-5]];perimeter=orthogonalPerimeter;outlineConnect=0;targetShapes=umlLifeline;portConstraint=eastwest;newEdgeStyle={&quot;curved&quot;:0,&quot;rounded&quot;:0};" vertex="1" parent="iopelBDr--RElrH_dYT2-12">
          <mxGeometry x="43" y="191" width="10" height="59" as="geometry" />
        </mxCell>
        <mxCell id="iopelBDr--RElrH_dYT2-14" value="AEDController" style="shape=umlLifeline;perimeter=lifelinePerimeter;whiteSpace=wrap;html=1;container=1;dropTarget=0;collapsible=0;recursiveResize=0;outlineConnect=0;portConstraint=eastwest;newEdgeStyle={&quot;curved&quot;:0,&quot;rounded&quot;:0};opacity=30;" vertex="1" parent="1">
          <mxGeometry x="5403" y="2389" width="100" height="1302" as="geometry" />
        </mxCell>
        <mxCell id="iopelBDr--RElrH_dYT2-15" value="" style="html=1;points=[[0,0,0,0,5],[0,1,0,0,-5],[1,0,0,0,5],[1,1,0,0,-5]];perimeter=orthogonalPerimeter;outlineConnect=0;targetShapes=umlLifeline;portConstraint=eastwest;newEdgeStyle={&quot;curved&quot;:0,&quot;rounded&quot;:0};" vertex="1" parent="iopelBDr--RElrH_dYT2-14">
          <mxGeometry x="45" y="254" width="10" height="80" as="geometry" />
        </mxCell>
        <mxCell id="iopelBDr--RElrH_dYT2-16" value="getControlSystem()" style="html=1;verticalAlign=bottom;endArrow=block;curved=0;rounded=0;entryX=0;entryY=0;entryDx=0;entryDy=5;" edge="1" parent="1" target="iopelBDr--RElrH_dYT2-13">
          <mxGeometry relative="1" as="geometry">
            <mxPoint x="4880" y="2585" as="sourcePoint" />
          </mxGeometry>
        </mxCell>
        <mxCell id="iopelBDr--RElrH_dYT2-17" value="return AEDController Object" style="html=1;verticalAlign=bottom;endArrow=open;dashed=1;endSize=8;curved=0;rounded=0;" edge="1" parent="1">
          <mxGeometry relative="1" as="geometry">
            <mxPoint x="4877" y="2620" as="targetPoint" />
            <mxPoint x="5167" y="2620" as="sourcePoint" />
            <Array as="points">
              <mxPoint x="5114" y="2620" />
            </Array>
          </mxGeometry>
        </mxCell>
        <mxCell id="iopelBDr--RElrH_dYT2-18" value="getCurrentStep()" style="html=1;verticalAlign=bottom;endArrow=block;curved=0;rounded=0;" edge="1" parent="1">
          <mxGeometry x="-0.1192" y="2" width="80" relative="1" as="geometry">
            <mxPoint x="4878" y="2675" as="sourcePoint" />
            <mxPoint x="5447" y="2675" as="targetPoint" />
            <mxPoint as="offset" />
          </mxGeometry>
        </mxCell>
        <mxCell id="iopelBDr--RElrH_dYT2-19" value="return currentStep" style="html=1;verticalAlign=bottom;endArrow=open;dashed=1;endSize=8;curved=0;rounded=0;" edge="1" parent="1">
          <mxGeometry relative="1" as="geometry">
            <mxPoint x="5442" y="2708" as="sourcePoint" />
            <mxPoint x="4877" y="2705" as="targetPoint" />
          </mxGeometry>
        </mxCell>
        <mxCell id="iopelBDr--RElrH_dYT2-20" value="alt" style="shape=umlFrame;whiteSpace=wrap;html=1;pointerEvents=0;" vertex="1" parent="1">
          <mxGeometry x="4397" y="2734" width="1233" height="800" as="geometry" />
        </mxCell>
        <mxCell id="iopelBDr--RElrH_dYT2-21" value="&lt;span style=&quot;background-color: rgb(128, 128, 128);&quot;&gt;currentStep != CPR&lt;/span&gt;" style="text;html=1;align=center;verticalAlign=middle;resizable=0;points=[];autosize=1;strokeColor=none;fillColor=none;" vertex="1" parent="1">
          <mxGeometry x="4805" y="2776" width="122" height="26" as="geometry" />
        </mxCell>
        <mxCell id="iopelBDr--RElrH_dYT2-22" value="return" style="html=1;align=left;spacingLeft=2;endArrow=block;rounded=0;edgeStyle=orthogonalEdgeStyle;curved=0;rounded=0;strokeWidth=3;" edge="1" parent="1">
          <mxGeometry relative="1" as="geometry">
            <mxPoint x="4876" y="2834" as="sourcePoint" />
            <Array as="points">
              <mxPoint x="4906" y="2834" />
              <mxPoint x="4906" y="2864" />
            </Array>
            <mxPoint x="4859" y="2864" as="targetPoint" />
          </mxGeometry>
        </mxCell>
        <mxCell id="iopelBDr--RElrH_dYT2-23" value="&lt;span style=&quot;background-color: rgb(128, 128, 128);&quot;&gt;compressionsDone &amp;gt;= MAX_NUMBER_COMPRESSIONS&lt;/span&gt;" style="text;html=1;align=center;verticalAlign=middle;resizable=0;points=[];autosize=1;strokeColor=none;fillColor=none;" vertex="1" parent="1">
          <mxGeometry x="4794" y="2918.5" width="331" height="26" as="geometry" />
        </mxCell>
        <mxCell id="iopelBDr--RElrH_dYT2-24" value="" style="html=1;points=[[0,0,0,0,5],[0,1,0,0,-5],[1,0,0,0,5],[1,1,0,0,-5]];perimeter=orthogonalPerimeter;outlineConnect=0;targetShapes=umlLifeline;portConstraint=eastwest;newEdgeStyle={&quot;curved&quot;:0,&quot;rounded&quot;:0};" vertex="1" parent="1">
          <mxGeometry x="5171" y="2965" width="10" height="59" as="geometry" />
        </mxCell>
        <mxCell id="iopelBDr--RElrH_dYT2-25" value="" style="html=1;points=[[0,0,0,0,5],[0,1,0,0,-5],[1,0,0,0,5],[1,1,0,0,-5]];perimeter=orthogonalPerimeter;outlineConnect=0;targetShapes=umlLifeline;portConstraint=eastwest;newEdgeStyle={&quot;curved&quot;:0,&quot;rounded&quot;:0};" vertex="1" parent="1">
          <mxGeometry x="5446" y="3028" width="10" height="80" as="geometry" />
        </mxCell>
        <mxCell id="iopelBDr--RElrH_dYT2-26" value="getControlSystem()" style="html=1;verticalAlign=bottom;endArrow=block;curved=0;rounded=0;entryX=0;entryY=0;entryDx=0;entryDy=5;" edge="1" parent="1" target="iopelBDr--RElrH_dYT2-24">
          <mxGeometry relative="1" as="geometry">
            <mxPoint x="4878" y="2970" as="sourcePoint" />
          </mxGeometry>
        </mxCell>
        <mxCell id="iopelBDr--RElrH_dYT2-27" value="return AEDController Object" style="html=1;verticalAlign=bottom;endArrow=open;dashed=1;endSize=8;curved=0;rounded=0;" edge="1" parent="1">
          <mxGeometry relative="1" as="geometry">
            <mxPoint x="4875" y="3005" as="targetPoint" />
            <mxPoint x="5165" y="3005" as="sourcePoint" />
            <Array as="points">
              <mxPoint x="5112" y="3005" />
            </Array>
          </mxGeometry>
        </mxCell>
        <mxCell id="iopelBDr--RElrH_dYT2-28" value="print(&quot;MAXIMUM NUMBER OF COMPRESSIONS REACHED&quot;)" style="html=1;verticalAlign=bottom;endArrow=block;curved=0;rounded=0;" edge="1" parent="1">
          <mxGeometry x="-0.1192" y="2" width="80" relative="1" as="geometry">
            <mxPoint x="4876" y="3060" as="sourcePoint" />
            <mxPoint x="5445" y="3060" as="targetPoint" />
            <mxPoint as="offset" />
          </mxGeometry>
        </mxCell>
        <mxCell id="iopelBDr--RElrH_dYT2-29" value="return" style="html=1;align=left;spacingLeft=2;endArrow=block;rounded=0;edgeStyle=orthogonalEdgeStyle;curved=0;rounded=0;strokeWidth=3;" edge="1" parent="1">
          <mxGeometry relative="1" as="geometry">
            <mxPoint x="4876" y="3087.05" as="sourcePoint" />
            <Array as="points">
              <mxPoint x="4906" y="3087.05" />
              <mxPoint x="4906" y="3117.05" />
            </Array>
            <mxPoint x="4859" y="3117.05" as="targetPoint" />
          </mxGeometry>
        </mxCell>
        <mxCell id="iopelBDr--RElrH_dYT2-30" value="" style="line;strokeWidth=1;fillColor=none;align=left;verticalAlign=middle;spacingTop=-1;spacingLeft=3;spacingRight=3;rotatable=0;labelPosition=right;points=[];portConstraint=eastwest;strokeColor=inherit;dashed=1;dashPattern=8 8;" vertex="1" parent="1">
          <mxGeometry x="4441" y="2895" width="1158" height="8" as="geometry" />
        </mxCell>
        <mxCell id="iopelBDr--RElrH_dYT2-31" value="" style="line;strokeWidth=1;fillColor=none;align=left;verticalAlign=middle;spacingTop=-1;spacingLeft=3;spacingRight=3;rotatable=0;labelPosition=right;points=[];portConstraint=eastwest;strokeColor=inherit;dashed=1;dashPattern=8 8;" vertex="1" parent="1">
          <mxGeometry x="4438" y="3155" width="1145" height="8" as="geometry" />
        </mxCell>
        <mxCell id="iopelBDr--RElrH_dYT2-32" value="" style="html=1;points=[[0,0,0,0,5],[0,1,0,0,-5],[1,0,0,0,5],[1,1,0,0,-5]];perimeter=orthogonalPerimeter;outlineConnect=0;targetShapes=umlLifeline;portConstraint=eastwest;newEdgeStyle={&quot;curved&quot;:0,&quot;rounded&quot;:0};" vertex="1" parent="1">
          <mxGeometry x="5175" y="3186" width="10" height="39" as="geometry" />
        </mxCell>
        <mxCell id="iopelBDr--RElrH_dYT2-33" value="incrementSessionCompressions()" style="html=1;verticalAlign=bottom;endArrow=block;curved=0;rounded=0;" edge="1" parent="1">
          <mxGeometry width="80" relative="1" as="geometry">
            <mxPoint x="4876" y="3201" as="sourcePoint" />
            <mxPoint x="5175" y="3201" as="targetPoint" />
          </mxGeometry>
        </mxCell>
        <mxCell id="iopelBDr--RElrH_dYT2-34" value="" style="html=1;points=[[0,0,0,0,5],[0,1,0,0,-5],[1,0,0,0,5],[1,1,0,0,-5]];perimeter=orthogonalPerimeter;outlineConnect=0;targetShapes=umlLifeline;portConstraint=eastwest;newEdgeStyle={&quot;curved&quot;:0,&quot;rounded&quot;:0};" vertex="1" parent="1">
          <mxGeometry x="5175" y="3242" width="10" height="62" as="geometry" />
        </mxCell>
        <mxCell id="iopelBDr--RElrH_dYT2-35" value="getSessionCompressions()" style="html=1;verticalAlign=bottom;endArrow=block;curved=0;rounded=0;" edge="1" parent="1">
          <mxGeometry width="80" relative="1" as="geometry">
            <mxPoint x="4876" y="3253" as="sourcePoint" />
            <mxPoint x="5175" y="3253" as="targetPoint" />
          </mxGeometry>
        </mxCell>
        <mxCell id="iopelBDr--RElrH_dYT2-36" value="return totalSessionCompressions" style="html=1;verticalAlign=bottom;endArrow=open;dashed=1;endSize=8;curved=0;rounded=0;" edge="1" parent="1">
          <mxGeometry relative="1" as="geometry">
            <mxPoint x="5175" y="3279" as="sourcePoint" />
            <mxPoint x="4876" y="3279" as="targetPoint" />
          </mxGeometry>
        </mxCell>
        <mxCell id="iopelBDr--RElrH_dYT2-37" value="compressionNumber-&amp;gt;display(totalSessionCompressions)" style="html=1;verticalAlign=bottom;endArrow=block;curved=0;rounded=0;" edge="1" parent="1">
          <mxGeometry width="80" relative="1" as="geometry">
            <mxPoint x="4866" y="3328" as="sourcePoint" />
            <mxPoint x="4480" y="3328" as="targetPoint" />
          </mxGeometry>
        </mxCell>
        <mxCell id="iopelBDr--RElrH_dYT2-38" value="sd CompressionButtonPressed" style="shape=umlFrame;whiteSpace=wrap;html=1;pointerEvents=0;width=228;height=32;" vertex="1" parent="1">
          <mxGeometry x="4158" y="2323" width="1634" height="1368" as="geometry" />
        </mxCell>
        <mxCell id="iopelBDr--RElrH_dYT2-39" value="&lt;font style=&quot;font-size: 55px;&quot;&gt;Use Case 5: Compressions&amp;nbsp;&lt;/font&gt;" style="rounded=1;whiteSpace=wrap;html=1;" vertex="1" parent="1">
          <mxGeometry x="4455" y="2251" width="700" height="72" as="geometry" />
        </mxCell>
      </root>
    </mxGraphModel>
  </diagram>
</mxfile>
